<?xml version="1.0" encoding="UTF-8" standalone="no"?>
<!-- Created with Inkscape (http://www.inkscape.org/) -->

<svg
   xmlns:dc="http://purl.org/dc/elements/1.1/"
   xmlns:cc="http://creativecommons.org/ns#"
   xmlns:rdf="http://www.w3.org/1999/02/22-rdf-syntax-ns#"
   xmlns:svg="http://www.w3.org/2000/svg"
   xmlns="http://www.w3.org/2000/svg"
   xmlns:sodipodi="http://sodipodi.sourceforge.net/DTD/sodipodi-0.dtd"
   xmlns:inkscape="http://www.inkscape.org/namespaces/inkscape"
   width="210mm"
   height="297mm"
   viewBox="0 0 744.09448819 1052.3622047"
   id="svg2"
   version="1.1"
   inkscape:version="0.91 r13725"
   sodipodi:docname="Logo - Influyentes.svg">
  <defs
     id="defs4" />
  <sodipodi:namedview
     id="base"
     pagecolor="#ffffff"
     bordercolor="#666666"
     borderopacity="1.0"
     inkscape:pageopacity="0.0"
     inkscape:pageshadow="2"
     inkscape:zoom="0.49497475"
     inkscape:cx="269.85727"
     inkscape:cy="637.38427"
     inkscape:document-units="px"
     inkscape:current-layer="layer2"
     showgrid="false"
     inkscape:window-width="1920"
     inkscape:window-height="1009"
     inkscape:window-x="0"
     inkscape:window-y="24"
     inkscape:window-maximized="1" />
  <metadata
     id="metadata7">
    <rdf:RDF>
      <cc:Work
         rdf:about="">
        <dc:format>image/svg+xml</dc:format>
        <dc:type
           rdf:resource="http://purl.org/dc/dcmitype/StillImage" />
        <dc:title></dc:title>
      </cc:Work>
    </rdf:RDF>
  </metadata>
  <g
     inkscape:groupmode="layer"
     id="layer2"
     inkscape:label="Squer"
     style="display:inline">
    <rect
       style="opacity:1;fill:#27ae60;fill-opacity:1;stroke:none;stroke-width:3.9800992;stroke-linecap:round;stroke-linejoin:round;stroke-miterlimit:4;stroke-dasharray:none;stroke-opacity:1"
       id="rect4210"
       width="638.4361"
       height="638.4361"
       x="52.829193"
       y="206.96306"
       rx="0"
       ry="40.835106" />
  </g>
  <g
     inkscape:groupmode="layer"
     id="layer4"
     inkscape:label="Icon"
     style="display:inline">
    <g
       id="g4226"
       transform="matrix(0.80203535,0,0,0.80203535,77.585673,118.68579)">
      <path
         sodipodi:nodetypes="cccccccccccccccsccccccccccccccccccccccccccccccc"
         inkscape:connector-curvature="0"
         id="path4148"
         d="m 218.2368,213.07402 c -0.50508,11.86929 -12.375,15.4043 -12.375,15.4043 -16.16244,2.27284 -23.48633,17.42578 -23.48633,17.42578 -13.13198,-8.08122 -25.25391,-4.79883 -25.25391,-4.79883 -28.53681,9.21765 -33.08203,-2.9043 -33.08203,-2.9043 -1.89404,10.6066 4.67188,21.08594 4.67188,21.08594 -12.62691,0.12627 -16.03516,-13.00586 -16.03516,-13.00586 -11.49048,12.75317 -9.10742,28.26563 -9.10742,28.26563 -15.89286,-0.17857 -16.695312,-17.5 -16.695312,-17.5 -12.142857,23.57143 -7.144532,38.57031 -7.144532,38.57031 -45.714286,32.85715 -27.855468,68.21484 -27.855468,68.21484 5.714285,-8.57143 12.0625,-12.11523 12.0625,-12.11523 0,0 -21.550435,39.10662 -31.701172,113.30468 l -0.623047,0.3379 11.111328,18.18164 c 0,0 4.040997,6.56684 -1.009766,18.18359 -5.050763,11.61676 -27.779297,47.47656 -27.779297,47.47656 0,0 -11.112745,18.6883 28.283204,24.24414 0,0 11.237362,-1.51604 0.251953,19.31836 0,0 -5.774833,5.71178 9.939453,13.03321 -12.211194,7.42346 -5.267578,18.15625 -5.267578,18.15625 0,0 11.427175,1.93331 9.46289,8.45117 0,0 -4.641462,14.64229 -4.46289,20.53515 0,0 -2.947823,43.21457 53.837884,29.10743 0,0 16.79758,-2.28223 49.375,-1.01954 -0.98191,27.98433 16.33985,59.41211 16.33985,59.41211 24.10714,30.71429 23.21484,62.14258 23.21484,62.14258 l 310.46289,0 c 0,0 35.86108,-121.55511 74.75196,-133.17187 0,0 30.55642,-9.09258 79.54882,-7.07227 0,0 58.59055,5.30372 36.36719,-48.23437 0,0 -3.45312,-8.3072 -2.20312,-15.27149 0,0 9.82226,-7.67912 9.82226,-11.96484 0,0 2.85687,-4.10603 -6.60742,-12.32031 0,0 9.10658,-8.39286 9.28516,-13.75 0,0 -17.11596,-14.37312 -2.46875,-32.05079 0,0 14.89922,-6.05999 17.92968,-16.41406 0,0 -51.76953,-57.58031 -51.76953,-68.43945 0,0 6.84487,-56.48855 -19.22656,-94.3457 0,0 26.07198,-65.35659 -131.78516,-94.28516 0,0 -102.5011,-12.50167 -146.42968,25.35547 -11.90623,7.79375 -32.46199,3.23177 -43.21289,-7.67774 -14.10714,-12.32143 -44.28711,-18.03515 -44.28711,-18.03515 -10.71428,-15.53572 -34.28516,-12.32227 -34.28516,-12.32227 -6.78571,-11.96429 2.41016,-20.71484 2.41016,-20.71484 -17.76785,-1.07143 -29.16602,13.68164 -29.16602,13.68164 1.26269,-23.23351 -5.80859,-22.47461 -5.80859,-22.47461 z"
         style="fill:#ffffff;fill-opacity:1;fill-rule:evenodd;stroke:none;stroke-width:1px;stroke-linecap:butt;stroke-linejoin:miter;stroke-opacity:1" />
      <g
         transform="translate(-4.8742346,-18.353039)"
         style="fill:#27ae60;fill-opacity:1;stroke:none"
         id="g4219">
        <g
           style="font-style:normal;font-weight:normal;font-size:56.64975739px;line-height:125%;font-family:sans-serif;letter-spacing:0px;word-spacing:0px;fill:#27ae60;fill-opacity:1;stroke:none;stroke-width:1px;stroke-linecap:butt;stroke-linejoin:miter;stroke-opacity:1"
           id="text4162"
           transform="translate(2.2060248e-6,54.108701)">
          <path
             d="m 307.31091,446.73388 c -11.96443,0 -23.38502,0.81576 -34.26177,2.44727 l 0,-12.23635 c 38.06863,-10.87675 80.21605,-25.83229 126.44225,-44.8666 l 3.26303,2.44727 0,289.59354 c -1.26556,57.96417 60.36598,83.20716 60.36598,83.20716 l -193.33429,0 c 0,0 64.15899,-28.19161 64.44476,-83.20716 l 0,-189.2555 c 0,-17.94664 -2.17535,-30.45491 -6.52605,-37.5248 -3.80686,-7.06989 -10.60483,-10.60483 -20.39391,-10.60483 z"
             style="font-style:normal;font-variant:normal;font-weight:normal;font-stretch:normal;font-size:815.75646973px;font-family:FreeSerif;-inkscape-font-specification:FreeSerif;fill:#27ae60;fill-opacity:1;stroke:none"
             id="path4167"
             inkscape:connector-curvature="0"
             sodipodi:nodetypes="sccccccccscs" />
        </g>
        <path
           d="m 360.82074,267.88091 c 16.68899,0 30.7229,5.68942 42.10176,17.06828 11.37885,11.37886 17.06827,25.03348 17.06827,40.96387 0,16.68899 -5.68942,30.72291 -17.06827,42.10176 -11.37886,10.62026 -25.41277,15.93039 -42.10176,15.93039 -15.93039,0 -29.58502,-5.68942 -40.96388,-17.06827 -10.62026,-11.37886 -15.93039,-25.03349 -15.93039,-40.96388 0,-15.93039 5.68942,-29.58501 17.06828,-40.96387 11.37886,-11.37886 24.65419,-17.06828 39.82599,-17.06828 z"
           style="font-style:normal;font-variant:normal;font-weight:normal;font-stretch:normal;font-size:815.75646973px;line-height:125%;font-family:FreeSerif;-inkscape-font-specification:FreeSerif;letter-spacing:0px;word-spacing:0px;fill:#27ae60;fill-opacity:1;stroke:none;stroke-width:1px;stroke-linecap:butt;stroke-linejoin:miter;stroke-opacity:1"
           id="path4167-4"
           inkscape:connector-curvature="0"
           sodipodi:nodetypes="ssscscsss" />
      </g>
    </g>
  </g>
</svg>
